<?xml version="1.0" encoding="UTF-8" standalone="no"?><svg xmlns="http://www.w3.org/2000/svg" xmlns:xlink="http://www.w3.org/1999/xlink" contentScriptType="application/ecmascript" contentStyleType="text/css" height="581.5734px" preserveAspectRatio="none" style="width:811px;height:581px;" version="1.1" viewBox="0 0 811 581" width="811.5872px" zoomAndPan="magnify"><defs><filter height="300%" id="f1qgxczb5qxucp" width="300%" x="-1" y="-1"><feGaussianBlur result="blurOut" stdDeviation="1.5385539996394013"/><feColorMatrix in="blurOut" result="blurOut2" type="matrix" values="0 0 0 0 0 0 0 0 0 0 0 0 0 0 0 0 0 0 .4 0"/><feOffset dx="3.0771079992788026" dy="3.0771079992788026" in="blurOut2" result="blurOut3"/><feBlend in="SourceGraphic" in2="blurOut3" mode="normal"/></filter></defs><g><text fill="#000000" font-family="sans-serif" font-size="13.847" lengthAdjust="spacingAndGlyphs" textLength="177.703" x="328.4813" y="12.8531">USMRR Telegraph Station</text><!--cluster ON--><rect fill="#FEFECE" filter="url(#f1qgxczb5qxucp)" height="493.8758" rx="9.616" ry="9.616" style="stroke: #A80036; stroke-width: 1.153915499729551;" width="779.2776" x="23.0783" y="79.9687"/><rect fill="#FFFFFF" height="469.0306" rx="9.616" ry="9.616" style="stroke: #FFFFFF; stroke-width: 0.7692769998197007;" width="774.6619" x="25.3861" y="102.5062"/><line style="stroke: #A80036; stroke-width: 1.153915499729551;" x1="23.0783" x2="802.3559" y1="100.1983" y2="100.1983"/><text fill="#000000" font-family="sans-serif" font-size="10.7699" lengthAdjust="spacingAndGlyphs" textLength="16.1548" x="404.6397" y="93.0427">ON</text><!--cluster SETUP--><rect fill="#FEFECE" filter="url(#f1qgxczb5qxucp)" height="241.1683" rx="9.616" ry="9.616" style="stroke: #A80036; stroke-width: 1.153915499729551;" width="245.3994" x="60.0036" y="289.9814"/><rect fill="#FFFFFF" height="216.3231" rx="9.616" ry="9.616" style="stroke: #FFFFFF; stroke-width: 0.7692769998197007;" width="240.7837" x="62.3114" y="312.5188"/><line style="stroke: #A80036; stroke-width: 1.153915499729551;" x1="60.0036" x2="305.403" y1="310.211" y2="310.211"/><text fill="#000000" font-family="sans-serif" font-size="10.7699" lengthAdjust="spacingAndGlyphs" textLength="35.3867" x="165.0099" y="303.0553">SETUP</text><ellipse cx="195.3964" cy="120.7404" fill="#000000" filter="url(#f1qgxczb5qxucp)" rx="7.6928" ry="7.6928" style="stroke: none; stroke-width: 0.7692769998197007;"/><rect fill="#FEFECE" filter="url(#f1qgxczb5qxucp)" height="38.4638" rx="9.616" ry="9.616" style="stroke: #A80036; stroke-width: 1.153915499729551;" width="51.5416" x="169.6256" y="186.129"/><line style="stroke: #A80036; stroke-width: 1.153915499729551;" x1="169.6256" x2="221.1671" y1="206.3586" y2="206.3586"/><text fill="#000000" font-family="sans-serif" font-size="10.7699" lengthAdjust="spacingAndGlyphs" textLength="36.156" x="177.3183" y="199.9722">ENTRY</text><rect fill="#FEFECE" filter="url(#f1qgxczb5qxucp)" height="60.1599" rx="9.616" ry="9.616" style="stroke: #A80036; stroke-width: 1.153915499729551;" width="117.6994" x="357.3292" y="312.2904"/><line style="stroke: #A80036; stroke-width: 1.153915499729551;" x1="357.3292" x2="475.0285" y1="332.52" y2="332.52"/><text fill="#000000" font-family="sans-serif" font-size="10.7699" lengthAdjust="spacingAndGlyphs" textLength="23.0783" x="404.6397" y="326.1336">IDLE</text><text fill="#000000" font-family="sans-serif" font-size="9.2313" lengthAdjust="spacingAndGlyphs" textLength="76.9277" x="361.1756" y="344.9351">No lights are on</text><text fill="#000000" font-family="sans-serif" font-size="9.2313" lengthAdjust="spacingAndGlyphs" textLength="79.2355" x="361.1756" y="355.6809">Sounder is quiet</text><text fill="#000000" font-family="sans-serif" font-size="9.2313" lengthAdjust="spacingAndGlyphs" textLength="102.3138" x="361.1756" y="366.4268">Scanning TRAIN input</text><rect fill="#FEFECE" filter="url(#f1qgxczb5qxucp)" height="60.1599" rx="9.616" ry="9.616" style="stroke: #A80036; stroke-width: 1.153915499729551;" width="168.4717" x="388.1002" y="175.3591"/><line style="stroke: #A80036; stroke-width: 1.153915499729551;" x1="388.1002" x2="556.5719" y1="195.5887" y2="195.5887"/><text fill="#000000" font-family="sans-serif" font-size="10.7699" lengthAdjust="spacingAndGlyphs" textLength="57.6958" x="443.4882" y="189.2023">SOUNDING</text><text fill="#000000" font-family="sans-serif" font-size="9.2313" lengthAdjust="spacingAndGlyphs" textLength="145.3934" x="391.9466" y="208.0038">Station OS message is playing</text><text fill="#000000" font-family="sans-serif" font-size="9.2313" lengthAdjust="spacingAndGlyphs" textLength="153.0861" x="391.9466" y="218.7496">Local BUSY light blinks dot code</text><text fill="#000000" font-family="sans-serif" font-size="9.2313" lengthAdjust="spacingAndGlyphs" textLength="120.0072" x="391.9466" y="229.4955">Remote BUSY lights flash</text><rect fill="#FEFECE" filter="url(#f1qgxczb5qxucp)" height="60.1599" rx="9.616" ry="9.616" style="stroke: #A80036; stroke-width: 1.153915499729551;" width="219.2439" x="564.2647" y="463.4533"/><line style="stroke: #A80036; stroke-width: 1.153915499729551;" x1="564.2647" x2="783.5086" y1="483.6829" y2="483.6829"/><text fill="#000000" font-family="sans-serif" font-size="10.7699" lengthAdjust="spacingAndGlyphs" textLength="55.3879" x="646.1927" y="477.2966">AMBIANCE</text><text fill="#000000" font-family="sans-serif" font-size="9.2313" lengthAdjust="spacingAndGlyphs" textLength="203.8584" x="568.1111" y="496.098">Backgroun "ambiance" message is playing</text><text fill="#000000" font-family="sans-serif" font-size="9.2313" lengthAdjust="spacingAndGlyphs" textLength="153.0861" x="568.1111" y="506.8439">Local BUSY light blinks dot code</text><text fill="#000000" font-family="sans-serif" font-size="9.2313" lengthAdjust="spacingAndGlyphs" textLength="120.0072" x="568.1111" y="517.5897">Remote BUSY lights flash</text><rect fill="#FEFECE" filter="url(#f1qgxczb5qxucp)" height="124.082" rx="9.616" ry="9.616" style="stroke: #A80036; stroke-width: 1.153915499729551;" width="213.0897" x="324.2503" y="431.5283"/><rect fill="#FFFFFF" height="99.2367" rx="9.616" ry="9.616" style="stroke: #FFFFFF; stroke-width: 0.7692769998197007;" width="208.4741" x="326.5581" y="454.0657"/><line style="stroke: #A80036; stroke-width: 1.153915499729551;" x1="324.2503" x2="537.34" y1="451.7579" y2="451.7579"/><text fill="#000000" font-family="sans-serif" font-size="10.7699" lengthAdjust="spacingAndGlyphs" textLength="29.2325" x="416.1789" y="445.3716">BUSY</text><ellipse cx="365.4066" cy="469.4513" fill="#000000" filter="url(#f1qgxczb5qxucp)" rx="7.6928" ry="7.6928" style="stroke: none; stroke-width: 0.7692769998197007;"/><rect fill="#FEFECE" filter="url(#f1qgxczb5qxucp)" height="38.4638" rx="9.616" ry="9.616" style="stroke: #A80036; stroke-width: 1.153915499729551;" width="65.3885" x="332.7123" y="505.6073"/><line style="stroke: #A80036; stroke-width: 1.153915499729551;" x1="332.7123" x2="398.1008" y1="525.8369" y2="525.8369"/><text fill="#000000" font-family="sans-serif" font-size="10.7699" lengthAdjust="spacingAndGlyphs" textLength="50.003" x="340.4051" y="519.4505">LAMP_ON</text><rect fill="#FEFECE" filter="url(#f1qgxczb5qxucp)" height="38.4638" rx="9.616" ry="9.616" style="stroke: #A80036; stroke-width: 1.153915499729551;" width="70.0042" x="441.9496" y="505.6073"/><line style="stroke: #A80036; stroke-width: 1.153915499729551;" x1="441.9496" x2="511.9538" y1="525.8369" y2="525.8369"/><text fill="#000000" font-family="sans-serif" font-size="10.7699" lengthAdjust="spacingAndGlyphs" textLength="54.6187" x="449.6424" y="519.4505">LAMP_OFF</text><!--link *start*BUSY to LAMP_ON--><path d="M365.4066,477.2605 C365.4066,483.4411 365.4066,492.7802 365.4066,501.4949 " fill="none" id="*start*BUSY-LAMP_ON" style="stroke: #A80036; stroke-width: 0.7692769998197007;"/><polygon fill="#A80036" points="365.4066,505.4415,368.4837,498.518,365.4066,501.5951,362.3295,498.518,365.4066,505.4415" style="stroke: #A80036; stroke-width: 0.7692769998197007;"/><!--link LAMP_ON to LAMP_OFF--><path d="M398.2705,524.8392 C410.6754,524.8392 424.9102,524.8392 437.8325,524.8392 " fill="none" id="LAMP_ON-LAMP_OFF" style="stroke: #A80036; stroke-width: 0.7692769998197007;"/><polygon fill="#A80036" points="441.7966,524.8392,434.8731,521.7621,437.9502,524.8392,434.8731,527.9163,441.7966,524.8392" style="stroke: #A80036; stroke-width: 0.7692769998197007;"/><text fill="#000000" font-family="sans-serif" font-size="10.0006" lengthAdjust="spacingAndGlyphs" textLength="28.4632" x="405.7936" y="519.5058">TIMER</text><!--link LAMP_ON to LAMP_OFF--><path d="M402.0561,539.604 C403.0501,539.8325 404.0407,540.0405 405.0243,540.2248 C418.1305,542.6803 421.8977,542.5576 435.0261,540.2248 C437.2401,539.8314 439.4903,539.3297 441.7404,538.7493 " fill="none" id="LAMP_ON-LAMP_OFF" style="stroke: #A80036; stroke-width: 0.7692769998197007;"/><polygon fill="#A80036" points="398.2121,538.6264,404.1636,543.315,401.9398,539.5744,405.6804,537.3506,398.2121,538.6264" style="stroke: #A80036; stroke-width: 0.7692769998197007;"/><text fill="#000000" font-family="sans-serif" font-size="10.0006" lengthAdjust="spacingAndGlyphs" textLength="28.4632" x="405.7936" y="537.1991">TIMER</text><ellipse cx="100.7753" cy="342.2922" fill="#000000" filter="url(#f1qgxczb5qxucp)" rx="7.6928" ry="7.6928" style="stroke: none; stroke-width: 0.7692769998197007;"/><rect fill="#FEFECE" filter="url(#f1qgxczb5qxucp)" height="38.4638" rx="9.616" ry="9.616" style="stroke: #A80036; stroke-width: 1.153915499729551;" width="53.8494" x="90.0054" y="474.2232"/><line style="stroke: #A80036; stroke-width: 1.153915499729551;" x1="90.0054" x2="143.8548" y1="494.4528" y2="494.4528"/><text fill="#000000" font-family="sans-serif" font-size="10.7699" lengthAdjust="spacingAndGlyphs" textLength="38.4638" x="97.6982" y="488.0664">ERROR</text><rect fill="#FEFECE" filter="url(#f1qgxczb5qxucp)" height="38.4638" rx="9.616" ry="9.616" style="stroke: #A80036; stroke-width: 1.153915499729551;" width="45.3873" x="175.7798" y="323.0603"/><line style="stroke: #A80036; stroke-width: 1.153915499729551;" x1="175.7798" x2="221.1671" y1="343.2899" y2="343.2899"/><text fill="#000000" font-family="sans-serif" font-size="10.7699" lengthAdjust="spacingAndGlyphs" textLength="30.0018" x="183.4726" y="336.9035">VALID</text><ellipse cx="29.2325" cy="29.9657" fill="#000000" filter="url(#f1qgxczb5qxucp)" rx="7.6928" ry="7.6928" style="stroke: none; stroke-width: 0.7692769998197007;"/><!--link *start to ON--><path d="M29.2325,37.737 C29.2325,42.914 29.2325,50.5233 29.2325,59.0541 C29.2325,63.3195 29.2325,67.8153 29.2325,72.3527 C29.2325,74.6214 29.2325,76.9004 29.2325,79.1663 C29.2325,79.3079 29.2325,79.4495 29.2325,79.591 " fill="none" id="*start-ON" style="stroke: #A80036; stroke-width: 0.7692769998197007;"/><polygon fill="#A80036" points="29.2325,79.591,32.3096,72.6675,29.2325,75.7446,26.1554,72.6675,29.2325,79.591" style="stroke: #A80036; stroke-width: 0.7692769998197007;"/><!--link *start*ON to ENTRY--><path d="M195.3964,128.5932 C195.3964,140.2678 195.3964,164.0338 195.3964,181.8987 " fill="none" id="*start*ON-ENTRY" style="stroke: #A80036; stroke-width: 0.7692769998197007;"/><polygon fill="#A80036" points="195.3964,185.8428,198.4735,178.9193,195.3964,181.9964,192.3192,178.9193,195.3964,185.8428" style="stroke: #A80036; stroke-width: 0.7692769998197007;"/><!--link ENTRY to SETUP--><path d="M169.4679,212.666 C139.7946,221.7057 92.6771,241.2031 72.312,277.6729 C70.6289,280.6872 69.2631,283.9077 68.1626,287.2403 C67.8874,288.0734 67.6289,288.9136 67.3861,289.7593 " fill="none" id="ENTRY-SETUP" style="stroke: #A80036; stroke-width: 0.7692769998197007;"/><polygon fill="#A80036" points="67.3861,289.7593,72.2543,283.9538,68.4475,286.0622,66.339,282.2555,67.3861,289.7593" style="stroke: #A80036; stroke-width: 0.7692769998197007;"/><text fill="#000000" font-family="sans-serif" font-size="10.0006" lengthAdjust="spacingAndGlyphs" textLength="176.1644" x="86.9283" y="268.4931">Invalid Settings || REGULAR || EXTRA</text><!--link ENTRY to IDLE--><path d="M221.3718,222.0596 C256.5331,243.6217 320.0362,282.5648 364.9681,310.1187 " fill="none" id="ENTRY-IDLE" style="stroke: #A80036; stroke-width: 0.7692769998197007;"/><polygon fill="#A80036" points="368.4414,312.2481,364.149,306.0048,365.1628,310.2368,360.9308,311.2506,368.4414,312.2481" style="stroke: #A80036; stroke-width: 0.7692769998197007;"/><text fill="#000000" font-family="sans-serif" font-size="10.0006" lengthAdjust="spacingAndGlyphs" textLength="66.1578" x="300.018" y="268.4931">Valid settings</text><!--link *start*SETUP to ERROR--><path d="M98.8075,349.755 C96.0181,359.6294 91.0501,378.7305 89.2361,395.3723 C86.3513,421.8393 96.5904,451.0772 105.424,470.5284 " fill="none" id="*start*SETUP-ERROR" style="stroke: #A80036; stroke-width: 0.7692769998197007;"/><polygon fill="#A80036" points="107.0534,474.0432,106.9329,466.4677,105.4355,470.5536,101.3496,469.0562,107.0534,474.0432" style="stroke: #A80036; stroke-width: 0.7692769998197007;"/><!--link ERROR to VALID--><path d="M124.3906,473.9747 C129.7909,461.4455 137.7367,444.8684 146.9319,431.5283 C154.8947,419.9761 160.6597,420.1046 168.4717,408.45 C177.4984,394.9838 185.0842,378.3636 190.3699,365.2497 " fill="none" id="ERROR-VALID" style="stroke: #A80036; stroke-width: 0.7692769998197007;"/><polygon fill="#A80036" points="191.7992,361.6488,186.3858,366.9495,190.3808,365.224,192.1062,369.219,191.7992,361.6488" style="stroke: #A80036; stroke-width: 0.7692769998197007;"/><text fill="#000000" font-family="sans-serif" font-size="10.0006" lengthAdjust="spacingAndGlyphs" textLength="86.9283" x="176.9337" y="405.4244">1 &lt;= TRAIN &lt;= 5</text><!--link VALID to ERROR--><path d="M175.6336,349.6796 C154.7662,357.0785 125.1544,371.2993 111.5452,395.3723 C98.5321,418.3906 103.4131,449.5694 109.1912,470.3676 " fill="none" id="VALID-ERROR" style="stroke: #A80036; stroke-width: 0.7692769998197007;"/><polygon fill="#A80036" points="110.2759,474.1263,111.311,466.6208,109.2086,470.4309,105.3985,468.3285,110.2759,474.1263" style="stroke: #A80036; stroke-width: 0.7692769998197007;"/><text fill="#000000" font-family="sans-serif" font-size="10.0006" lengthAdjust="spacingAndGlyphs" textLength="49.2337" x="112.3144" y="405.4244">TRAIN &gt; 5</text><!--link IDLE to VALID--><path d="M353.3258,342.2922 C309.0809,342.2922 252.4098,342.2922 221.3602,342.2922 " fill="none" id="IDLE-VALID" style="stroke: #A80036; stroke-width: 0.7692769998197007;"/><polygon fill="#A80036" points="357.2969,342.2922,350.3734,339.2151,353.4505,342.2922,350.3734,345.3693,357.2969,342.2922" style="stroke: #A80036; stroke-width: 0.7692769998197007;"/><text fill="#000000" font-family="sans-serif" font-size="10.0006" lengthAdjust="spacingAndGlyphs" textLength="89.2361" x="244.6301" y="336.9587">REGULAR || EXTRA</text><!--link IDLE to AMBIANCE--><path d="M475.0709,350.9797 C531.3365,359.614 610.9806,374.9719 634.6535,395.3723 C653.49,411.6048 663.3929,438.1949 668.5348,459.4816 " fill="none" id="IDLE-AMBIANCE" style="stroke: #A80036; stroke-width: 0.7692769998197007;"/><polygon fill="#A80036" points="669.4402,463.3903,670.8749,455.9508,668.5719,459.6432,664.8795,457.3402,669.4402,463.3903" style="stroke: #A80036; stroke-width: 0.7692769998197007;"/><text fill="#000000" font-family="sans-serif" font-size="10.0006" lengthAdjust="spacingAndGlyphs" textLength="110.7759" x="646.1927" y="405.4244">Ambiance timer expiry</text><!--link AMBIANCE to IDLE--><path d="M623.3952,463.3703 C579.2848,437.7603 515.4217,400.6819 470.276,374.4703 " fill="none" id="AMBIANCE-IDLE" style="stroke: #A80036; stroke-width: 0.7692769998197007;"/><polygon fill="#A80036" points="466.7865,372.444,471.2297,378.5809,470.1131,374.3749,474.3191,373.2584,466.7865,372.444" style="stroke: #A80036; stroke-width: 0.7692769998197007;"/><text fill="#000000" font-family="sans-serif" font-size="10.0006" lengthAdjust="spacingAndGlyphs" textLength="93.0825" x="523.1084" y="405.4244">Message complete</text><!--link SOUNDING to IDLE--><path d="M423.6716,238.3306 C417.8466,244.3017 412.7387,251.0267 409.2554,258.441 C401.4387,275.0782 403.0811,295.6556 406.7221,312.1689 " fill="none" id="SOUNDING-IDLE" style="stroke: #A80036; stroke-width: 0.7692769998197007;"/><polygon fill="#A80036" points="426.5841,235.4596,419.4925,238.1265,423.844,238.159,423.8115,242.5106,426.5841,235.4596" style="stroke: #A80036; stroke-width: 0.7692769998197007;"/><text fill="#000000" font-family="sans-serif" font-size="10.0006" lengthAdjust="spacingAndGlyphs" textLength="89.2361" x="410.0246" y="268.4931">REGULAR || EXTRA</text><!--link SOUNDING to IDLE--><path d="M497.9561,235.4642 C504.718,246.7511 508.7406,259.7496 503.1072,271.5187 C495.9737,286.4227 483.9468,299.165 471.0791,309.5325 " fill="none" id="SOUNDING-IDLE" style="stroke: #A80036; stroke-width: 0.7692769998197007;"/><polygon fill="#A80036" points="467.792,312.1165,475.1368,310.2575,470.8161,309.7397,471.3338,305.4189,467.792,312.1165" style="stroke: #A80036; stroke-width: 0.7692769998197007;"/><text fill="#000000" font-family="sans-serif" font-size="10.0006" lengthAdjust="spacingAndGlyphs" textLength="183.8572" x="506.9535" y="268.4931">STOP_IN || REGULAR || EXTRA || TRAIN</text><!--link IDLE to BUSY--><path d="M369.5584,372.3656 C359.2601,382.6616 352.7074,395.0392 357.7138,408.45 C360.2278,415.1835 363.5495,421.7362 367.3921,428.0181 " fill="none" id="IDLE-BUSY" style="stroke: #A80036; stroke-width: 0.7692769998197007;"/><polygon fill="#A80036" points="369.5784,431.4791,368.4808,423.9825,367.5235,428.2276,363.2784,427.2703,369.5784,431.4791" style="stroke: #A80036; stroke-width: 0.7692769998197007;"/><text fill="#000000" font-family="sans-serif" font-size="10.0006" lengthAdjust="spacingAndGlyphs" textLength="42.3102" x="358.4831" y="405.4244">BUSY_IN</text><!--link BUSY to IDLE--><path d="M424.8009,431.3206 C422.9746,412.6257 421.0353,392.7737 419.4591,376.6412 " fill="none" id="BUSY-IDLE" style="stroke: #A80036; stroke-width: 0.7692769998197007;"/><polygon fill="#A80036" points="419.0667,372.6225,416.6766,379.8121,419.4403,376.4507,422.8017,379.2144,419.0667,372.6225" style="stroke: #A80036; stroke-width: 0.7692769998197007;"/><polygon fill="none" points="426.9487,399.2698,423.8716,403.8854,430.0258,403.8854" style="stroke: #1963A0; stroke-width: 0.7692769998197007;"/><text fill="#000000" font-family="sans-serif" font-size="10.0006" lengthAdjust="spacingAndGlyphs" textLength="42.3102" x="432.3337" y="405.4244">BUSY_IN</text><!--
@startuml
scale 600 height

title USMRR Telegraph Station
[*] - -> ON
state ON {
  [*] - -> ENTRY
  
  state ENTRY
  ENTRY - -> SETUP : Invalid Settings || REGULAR || EXTRA
  ENTRY - -> IDLE : Valid settings

  state IDLE
  IDLE : No lights are on
  IDLE : Sounder is quiet
  IDLE : Scanning TRAIN input
  
  state SOUNDING
  SOUNDING: Station OS message is playing
  SOUNDING: Local BUSY light blinks dot code
  SOUNDING: Remote BUSY lights flash
  
  
  state BUSY {
    [*] - -> LAMP_ON
    state LAMP_ON
    state LAMP_OFF
    LAMP_ON -r-> LAMP_OFF : TIMER
    LAMP_OFF -l-> LAMP_ON : TIMER
  }

  state SETUP {
    [*] - -> ERROR
    state ERROR
    state VALID
    ERROR - -> VALID : 1 <= TRAIN <= 5
    VALID - -> ERROR : TRAIN > 5
    VALID -l-> IDLE : REGULAR || EXTRA
  }
  
  state AMBIANCE
  AMBIANCE: Backgroun "ambiance" message is playing
  AMBIANCE: Local BUSY light blinks dot code
  AMBIANCE: Remote BUSY lights flash

  IDLE - -> AMBIANCE : Ambiance timer expiry
  AMBIANCE - -> IDLE : Message complete
  
  IDLE -up-> SOUNDING : REGULAR || EXTRA
  SOUNDING -down-> IDLE : STOP_IN || REGULAR || EXTRA || TRAIN
  
  IDLE - -> BUSY : BUSY_IN
  BUSY - -> IDLE : ~BUSY_IN


  
}
@enduml

PlantUML version 1.2018.14(Fri Dec 21 16:33:16 UTC 2018)
(GPL source distribution)
Java Runtime: Java(TM) SE Runtime Environment
JVM: Java HotSpot(TM) 64-Bit Server VM
Java Version: 1.7.0_25-b15
Operating System: Linux
Default Encoding: UTF-8
Language: en
Country: US
--></g></svg>